<svg xmlns="http://www.w3.org/2000/svg" viewBox="0 0 4642.17 974.24"><defs><style>.cls-1{fill:#fff;}</style></defs><title>Testwe-white</title><g id="Calque_2" data-name="Calque 2"><g id="Calque_1-2" data-name="Calque 1"><path class="cls-1" d="M1290.48,727.37v-389h-64.07c-14,0-26.77-12.84-26.77-26.79S1212.43,286,1226.41,286h64.07V120.55c0-16.3,11.63-29.12,28-29.12a28.83,28.83,0,0,1,29.1,29.12V286h186.34c14,0,26.8,12.79,26.8,26.77s-12.82,25.63-26.8,25.63H1347.54V721.54c0,85,50.08,115.29,118.8,115.29,40.77,0,59.39-11.66,67.54-11.66,12.82,0,25.64,11.66,25.64,25.64,0,11.66-7,19.81-18.65,24.45-23.29,8.15-50.06,15.16-83.85,15.16C1365,890.42,1290.48,840.34,1290.48,727.37Z"/><path class="cls-1" d="M1899.57,893.91c-156.07,0-291.17-124.63-291.17-309.8v-2.34C1608.4,409.4,1729.52,272,1890.26,272c166.54,0,272.52,137.42,272.52,307.44,0,14-14,26.82-27.93,26.82H1669c10.5,147.9,116.48,234.1,232.93,234.1,85,0,144.44-35,192.18-81.53,4.67-4.67,10.5-8.18,18.65-8.18,15.14,0,27.93,11.66,27.93,26.8,0,5.83-2.32,12.82-9.31,19.81C2073.1,855.45,2006.74,893.91,1899.57,893.91ZM2101.06,555c-8.15-119.94-76.86-230.59-213.12-230.59-117.64,0-208.48,99-219,230.59Z"/><path class="cls-1" d="M2232.63,814.7c-4.64-3.48-10.47-12.79-10.47-22.13a28.36,28.36,0,0,1,28-28,32.23,32.23,0,0,1,18.62,5.83c61.74,44.26,127,67.57,198,67.57,80.37,0,143.25-44.26,143.25-113V722.7c0-69.87-74.54-95.51-157.23-118.8-96.67-28-203.81-57.08-203.81-163.06v-2.32c0-95.51,80.34-164.22,195.66-164.22,64,0,135.1,20.94,192.17,53.57,7,4.67,15.15,12.82,15.15,25.61a28.34,28.34,0,0,1-28,28,30.17,30.17,0,0,1-16.3-4.64c-51.25-30.28-108.33-48.93-165.41-48.93-81.5,0-135.1,44.26-135.1,103.66v2.32c0,66.39,80.37,90.84,165.41,115.29,95.48,26.8,195.66,61.75,195.66,166.57V718c0,106-90.84,173.53-205,173.53C2382.9,891.56,2293.19,860.14,2232.63,814.7Z"/><path class="cls-1" d="M2811.42,727.37v-389h-64.07c-14,0-26.77-12.84-26.77-26.79S2733.37,286,2747.35,286h64.07V120.55c0-16.3,11.63-29.12,27.95-29.12a28.82,28.82,0,0,1,29.1,29.12V286h186.35c14,0,26.8,12.79,26.8,26.77s-12.82,25.63-26.8,25.63H2868.47V721.54c0,85,50.09,115.29,118.8,115.29,40.78,0,59.4-11.66,67.55-11.66,12.82,0,25.64,11.66,25.64,25.64,0,11.66-7,19.81-18.65,24.45-23.29,8.15-50.07,15.16-83.85,15.16C2886,890.42,2811.42,840.34,2811.42,727.37Z"/><path class="cls-1" d="M3295.88,827.52,3130.5,359.31c-3.51-9.31-7-24.45-7-36.11,0-33.76,26.8-65.2,68.71-65.2,35,0,58.24,23.26,68.71,55.89l118.8,372.7,120-372.7c10.5-32.63,36.13-55.89,72.24-55.89h8.15c36.11,0,61.72,23.26,72.22,55.89l121.12,372.7,120-373.86c9.31-30.28,31.44-54.73,68.72-54.73,38.45,0,66.38,30.28,66.38,65.2,0,10.47-3.48,24.45-5.8,31.47L3855,827.52c-15.14,43.1-44.26,62.9-78,62.9h-4.67c-35,0-64.07-19.8-76.86-60.56l-120-365.73L3454.27,829.86c-12.79,40.76-41.91,60.56-75.7,60.56h-4.64C3339,890.42,3309.86,870.62,3295.88,827.52Z"/><path class="cls-1" d="M4365,893.91c-178.2,0-315.65-129.3-315.65-319.13v-2.32c0-175.88,124.63-320.29,300.51-320.29,195.66,0,292.33,160.74,292.33,302.8,0,39.62-30.28,67.58-66.39,67.58H4190.26c15.14,100.15,86.2,156,177,156,59.4,0,106-20.94,145.6-53.57,10.47-8.15,19.78-12.82,36.08-12.82,31.47,0,55.92,24.48,55.92,57.08,0,17.46-8.15,32.63-18.65,43.1C4530.36,862.47,4460.46,893.91,4365,893.91Zm139.74-364.55c-9.31-90.84-62.88-161.9-156-161.9-86.2,0-146.76,66.39-159.58,161.9Z"/><path class="cls-1" d="M410.27,972.78a25.17,25.17,0,0,0,16.91,0c420.45-145.67,414.26-492.44,409-746-.52-27.62-1-53.59-1-78.85,0-14.22-11.7-23.65-25.82-25.78C653.27,98.63,557.73,69.82,436.68,5.49c-12.39-7.7-25.28-6.94-36,0C280.23,75.89,184.7,103.18,28,122.16c-14.12,1.71-25.78,11.56-25.78,25.78,0,25.26,0,51.56-1,78.85C-4,480.34-10.18,827.07,410.27,972.78ZM52.85,228.07c0-18.81.69-36.82.9-54.59,147.63-17.22,246.2-50.58,365-114,112.71,59.84,211.8,86.12,365.07,114.1,0,17.63.5,35.78.93,54.55,4.74,248.76,10.28,558-366,693.1C42.21,786,47.59,476.83,52.85,228.07Z"/><path class="cls-1" d="M410.86,683.2a80.31,80.31,0,0,1-57-23.6L184.35,490.1A80.52,80.52,0,0,1,298.22,376.23L410.86,488.91,818.58,84.42A80.53,80.53,0,1,1,932.45,198.31L467.79,659.67A80.43,80.43,0,0,1,410.86,683.2Z"/></g></g></svg>