<svg xmlns="http://www.w3.org/2000/svg" viewBox="0 0 75.3428 70.9219">
    <defs>
        <style>
            .cls-1 {
            fill: #303030;
            stroke: #303030;
            stroke-miterlimit: 10;
            }
        </style>
    </defs>
    <title>log in</title>
    <g id="Calque_2" data-name="Calque 2">
        <g id="administration">
            <path class="cls-1" d="M41.959,68.5439a1.8807,1.8807,0,0,0-1.8779-1.8789l-35.8243.002V4.2568H40.0811a1.8784,1.8784,0,0,0,0-3.7568H2.3779A1.8807,1.8807,0,0,0,.5,2.3789V68.7107l.0161-.009a1.8744,1.8744,0,0,0,1.8618,1.72H40.0811A1.8805,1.8805,0,0,0,41.959,68.5439Z"/>
            <path class="cls-1" d="M41.4106,46.0242V38.6836H72.0078a2.835,2.835,0,1,0,0-5.67H41.4106V25.6714l-17.623,10.176Z"/>
        </g>
    </g>
</svg>