<?xml version="1.0" encoding="utf-8"?>
<!-- Generator: Adobe Illustrator 22.1.0, SVG Export Plug-In . SVG Version: 6.00 Build 0)  -->
<svg version="1.1" id="Calque_1" xmlns="http://www.w3.org/2000/svg" xmlns:xlink="http://www.w3.org/1999/xlink" x="0px" y="0px"
	 viewBox="0 0 219.2 276.5" style="enable-background:new 0 0 219.2 276.5;" xml:space="preserve">
<style type="text/css">
	.st0{fill:#393E46;}
</style>
<title>About-your-personnal-data</title>
<g id="Calque_2_1_">
	<g id="Calque_1-2">
		<path class="st0" d="M152.1,101.7H28.8c-1.3,0-2.4,1.1-2.4,2.4v3.6c0,1.3,1.1,2.4,2.4,2.4h120.3L152.1,101.7z"/>
		<path class="st0" d="M28.8,59.7c-1.3,0-2.4,1.1-2.4,2.4v3.6c0,1.3,1.1,2.4,2.4,2.4h124c1.3,0,2.3-1,2.3-2.3v0V62
			c0-1.3-1-2.3-2.3-2.3l0,0L28.8,59.7z"/>
		<path class="st0" d="M137.1,143.6H28.8c-1.3,0-2.4,1.1-2.4,2.4v3.6c0,1.3,1.1,2.4,2.4,2.4h105.5L137.1,143.6z"/>
		<path class="st0" d="M28.8,185.6H105c1.3,0,2.4,1.1,2.4,2.4v3.6c0,1.3-1.1,2.4-2.4,2.4H28.8c-1.3,0-2.4-1.1-2.4-2.4V188
			C26.4,186.7,27.5,185.6,28.8,185.6z"/>
		<path class="st0" d="M142,220.1l18.1-16.8l-26.4-8.1l5.6,24c0.2,0.9,1.1,1.5,2,1.3C141.5,220.4,141.8,220.3,142,220.1z"/>
		
			<rect x="197.5" y="7.1" transform="matrix(0.2924 -0.9563 0.9563 0.2924 122.5051 207.0623)" class="st0" width="7.3" height="27.2"/>
		<path class="st0" d="M194.1,0l24.5,7.5c0.4,0.1,0.7,0.6,0.6,1l-2.9,9.4c-0.1,0.4-0.6,0.7-1,0.6L190.8,11c-0.4-0.1-0.7-0.6-0.6-1
			l2.9-9.4C193.2,0.2,193.7-0.1,194.1,0z"/>
		
			<rect x="145.9" y="180.9" transform="matrix(0.2924 -0.9563 0.9563 0.2924 -81.2493 279.2087)" class="st0" width="4.4" height="27.2"/>
		
			<rect x="89.1" y="94.7" transform="matrix(0.2924 -0.9563 0.9563 0.2924 19.8197 243.4176)" class="st0" width="170.5" height="27.2"/>
		<path class="st0" d="M181.5,164.2v91.3c0,3.2-3.6,5.9-7.8,5.9h-151c-4.2,0-7.8-2.7-7.8-5.9V41.5c0-3.2,3.5-6,7.8-6h149.8l4.5-14.7
			c-1.1-0.1-2.2-0.2-3.3-0.2h-151C10.2,20.6,0,30,0,41.5v214.1c0,11.6,10.2,20.9,22.8,20.9h151c12.6,0,22.8-9.4,22.8-20.9V115.2
			L181.5,164.2z"/>
		<path class="st0" d="M136.1,222.3l-10.8,0.1c-1.6,0-3.3,0.1-4.9,0.1c-1.9-0.1-1.8,0.6-1.9-1.3c-0.1-2.5-2.3-4.5-4.8-4.3
			c-0.1,0-0.1,0-0.2,0c-1.2-3.7-7.8-3.4-8.5,0.7c-0.3,2-0.4,6-3.2,5.8c-5.8-0.4-5.8,8.6,0,9c3.1,0.3,6.1-0.9,8.1-3.3
			c0.5,0.2,1.1,0.4,1.7,0.4c0.3,0,0.7,0,1,0c0.8,0.8,1.8,1.4,2.9,1.7c2.7,0.8,6.1,0.3,8.9,0.3l11.8-0.1
			C141.9,231.2,141.9,222.2,136.1,222.3z"/>
	</g>
</g>
</svg>
