<svg xmlns="http://www.w3.org/2000/svg" viewBox="0 0 326.69 280.33"><defs><style>.cls-1{fill:#393e46;}</style></defs><title>Pupils-and-students_1</title><g id="Calque_2" data-name="Calque 2"><g id="Calque_1-2" data-name="Calque 1"><path class="cls-1" d="M57,59.7a3,3,0,0,1-.7-5.93L151,22.91a40.6,40.6,0,0,1,24.39-.11l98.31,30.4a3,3,0,0,1,0,5.82l-45.77,14.1a2.82,2.82,0,0,1-1.08.13C218,72.53,99.92,63,57,59.7Z"/><path class="cls-1" d="M318.75,45.2,181.57,2.77a61.3,61.3,0,0,0-37,.17h0L7.84,46.7a11.27,11.27,0,0,0,.1,21.5l8.21,2.54.58,121.69a19.86,19.86,0,0,0,6.13,38.74H23a19.86,19.86,0,0,0,5.85-38.8L28.24,74.48,55.6,82.94,56,174.19a21.78,21.78,0,0,0,12.83,19.75A230.21,230.21,0,0,0,163,214.05a230.46,230.46,0,0,0,96.15-21,21.79,21.79,0,0,0,12.64-19.87l-.43-91.25,47.52-15.2a11.27,11.27,0,0,0-.11-21.5ZM22.9,219.1h0a7.79,7.79,0,0,1,0-15.57h0a7.79,7.79,0,0,1,0,15.57Zm231.19-37a218.27,218.27,0,0,1-180.29.87,9.68,9.68,0,0,1-5.69-8.79l-.42-87.45,77.43,23.95a61.39,61.39,0,0,0,37-.18l77.2-24.7.41,87.46A9.69,9.69,0,0,1,254.09,182.05ZM178.41,99a49.26,49.26,0,0,1-29.72.15L14,57.42l134.33-43A49.37,49.37,0,0,1,178,14.3L312.75,56Z"/><path class="cls-1" d="M1,280.33l0-6c-.08-15.8,4.83-28.74,9.12-38.25l11,5c-3.21,7.11-6.81,16.34-7.8,27.18L33,268.1c-1.09-10.83-4.78-20-8.06-27.11l11-5.07c4.38,9.47,9.42,22.36,9.5,38.15l0,6Z"/></g></g></svg>