<svg xmlns="http://www.w3.org/2000/svg" viewBox="0 0 96.6001 41.1547">
  <defs>
    <style>
      .cls-1 {
        fill: #4b9273;
      }

      .cls-2 {
        fill: #4cb47f;
      }

      .cls-3 {
        fill: #fff;
      }
    </style>
  </defs>
  <title>blason</title>
  <g id="Calque_2" data-name="Calque 2">
    <g id="Calque_1-2" data-name="Calque 1">
      <path class="cls-1" d="M94.3851,16.2445H68.6926a.5823.5823,0,0,0-.4136.1724l-5.8916,5.9479a.5823.5823,0,0,0-.1538.28L60.11,31.9a.5821.5821,0,0,0,.979.5418l9.9348-9.9348a.5822.5822,0,0,1,.4116-.1705H88.1408a.5823.5823,0,0,0,.3606-.1251l6.2443-4.928A.5821.5821,0,0,0,94.3851,16.2445Z"/>
      <g>
        <path class="cls-2" d="M62.9563,27.3629a1.1128,1.1128,0,0,1-.8457-.3892,1.0768,1.0768,0,0,1-.2456-.8794l1.4116-9.0986a1.0922,1.0922,0,0,1,.3052-.605l5.081-5.1113a1.1056,1.1056,0,0,1,.7789-.3237H94.9988a1.0979,1.0979,0,0,1,.68,1.96l-6.2032,4.8955a1.1,1.1,0,0,1-.68.2359h-16.68l-8.36,8.9624A1.0822,1.0822,0,0,1,62.9563,27.3629Z"/>
        <path class="cls-3" d="M94.999,11.4555a.5983.5983,0,0,1,.3706,1.068L89.1664,17.419a.5986.5986,0,0,1-.3707.1286h-16.68a.5979.5979,0,0,0-.4385.1914L63.3889,26.67a.5821.5821,0,0,1-.4324.1935.5985.5985,0,0,1-.5974-.6922l1.4114-9.0986a.5984.5984,0,0,1,.1669-.33l5.08-5.11a.5981.5981,0,0,1,.4243-.1765H94.999m0-1H69.4418a1.6087,1.6087,0,0,0-1.1336.4716l-5.08,5.11a1.5887,1.5887,0,0,0-.4458.8818l-1.4115,9.0986a1.5909,1.5909,0,0,0,.36,1.2813,1.6126,1.6126,0,0,0,1.2255.5642,1.5762,1.5762,0,0,0,1.1654-.5132l8.1688-8.8024h16.505a1.6051,1.6051,0,0,0,.99-.3437l6.2031-4.8954a1.5983,1.5983,0,0,0-.99-2.853Z"/>
      </g>
      <path class="cls-1" d="M2.2975,16.2445H27.99a.5823.5823,0,0,1,.4136.1724l5.8916,5.9479a.5823.5823,0,0,1,.1538.28L36.5729,31.9a.5821.5821,0,0,1-.979.5418l-9.9348-9.9348a.5822.5822,0,0,0-.4116-.1705H8.5418a.5823.5823,0,0,1-.3606-.1251l-6.2443-4.928A.5821.5821,0,0,1,2.2975,16.2445Z"/>
      <g>
        <path class="cls-2" d="M33.6438,27.3629a1.0809,1.0809,0,0,1-.7993-.3535l-8.2881-8.93-16.752-.0317a1.1028,1.1028,0,0,1-.6811-.2364L.9207,12.9161a1.0981,1.0981,0,0,1,.6806-1.96H27.158a1.1058,1.1058,0,0,1,.7793.3237l5.08,5.11a1.0884,1.0884,0,0,1,.3067.6075l1.4116,9.0971a1.0768,1.0768,0,0,1-.2456.8794A1.1128,1.1128,0,0,1,33.6438,27.3629Z"/>
        <path class="cls-3" d="M27.1582,11.4555a.5981.5981,0,0,1,.4243.1765l5.08,5.11a.5984.5984,0,0,1,.1669.33l1.4114,9.0986a.5985.5985,0,0,1-.5974.6922.5821.5821,0,0,1-.4324-.1935l-8.288-8.9307a.5981.5981,0,0,0-.4386-.1914H7.8043a.5986.5986,0,0,1-.3707-.1286L1.23,12.5235a.5983.5983,0,0,1,.3707-1.068H27.1582m0-1H1.6011a1.5983,1.5983,0,0,0-.99,2.853L6.8141,18.204a1.6051,1.6051,0,0,0,.99.3436h16.505L32.4781,27.35a1.5762,1.5762,0,0,0,1.1654.5132,1.6123,1.6123,0,0,0,1.2255-.5642,1.5905,1.5905,0,0,0,.36-1.2813l-1.4114-9.0986a1.5884,1.5884,0,0,0-.4458-.8817l-5.08-5.11a1.6086,1.6086,0,0,0-1.1335-.4715Z"/>
      </g>
      <g>
        <g>
          <path class="cls-2" d="M48.3469,40.9049a1.28,1.28,0,0,1-.4321-.0747C30.38,34.753,30.6731,20.3556,30.887,9.8429c.042-1.1265.042-2.2071.042-3.2452a1.3542,1.3542,0,0,1,1.2827-1.31c6.6894-.81,10.541-2.0156,15.2651-4.7764A1.5955,1.5955,0,0,1,48.3391.25a1.6515,1.6515,0,0,1,.88.2642C54.073,3.0934,57.9285,4.3,64.4836,5.2882a1.3677,1.3677,0,0,1,1.2774,1.31c0,1.023.02,2.0748.041,3.1915.2192,10.5659.5176,24.9633-17.0244,31.0419A1.2861,1.2861,0,0,1,48.3469,40.9049ZM33.5369,8.5392c-.01.4453-.02.8974-.02,1.3613-.2143,10.144-.4814,22.7573,14.83,28.3056C63.616,32.6754,63.3752,20.0543,63.1819,9.9093l-.0078-.3443c-.0137-.58-.0269-1.1465-.03-1.7-5.98-1.0986-10.148-2.1792-14.7969-4.6284A38.5563,38.5563,0,0,1,33.55,7.8731Z"/>
          <path class="cls-3" d="M48.3391.5a1.41,1.41,0,0,1,.7483.2265c4.9892,2.6514,8.9267,3.8389,15.3594,4.8086a1.13,1.13,0,0,1,1.0644,1.0625c0,1.041.02,2.1113.042,3.25.2168,10.45.4717,24.7431-16.8574,30.7471a1.043,1.043,0,0,1-.6973,0C30.6694,34.5888,30.9243,20.2978,31.1372,9.8476c.042-1.125.042-2.209.042-3.25a1.1147,1.1147,0,0,1,1.0625-1.0625c6.46-.7822,10.3974-1.9072,15.3613-4.8086A1.3485,1.3485,0,0,1,48.3391.5m.008,37.9716c15.5088-5.57,15.28-18.3144,15.085-28.5674-.0176-.7734-.0381-1.5215-.0381-2.248C57.0766,6.5029,52.9926,5.42,48.3471,2.9531A38.5212,38.5212,0,0,1,33.3042,7.65c-.0088.7324-.0371,1.4746-.0371,2.25-.2168,10.2529-.4385,22.9951,15.08,28.5713M48.3391,0a1.8576,1.8576,0,0,0-1.0077.3066c-4.6711,2.73-8.4988,3.9267-15.15,4.7321a1.6168,1.6168,0,0,0-1.5024,1.5589c0,1.04,0,2.1156-.0417,3.2313-.216,10.598-.5114,25.1008,17.1972,31.2382a1.5421,1.5421,0,0,0,1.0281-.0012c17.7108-6.1362,17.41-20.6391,17.19-31.2287l-.0009-.0531c-.0211-1.1152-.0409-2.165-.0409-3.1865a1.6091,1.6091,0,0,0-1.49-1.5569C57.9976,4.0573,54.1623,2.8572,49.322.2849A1.8555,1.8555,0,0,0,48.3391,0ZM33.797,8.0947a38.63,38.63,0,0,0,14.5509-4.576C52.924,5.9117,57.0485,6.9916,62.896,8.073c.0046.49.0163.9892.0283,1.5l.0079.343c.1913,10.0443.4294,22.5379-14.5851,28.0242C33.291,32.4362,33.5547,19.9505,33.767,9.9108c0-.4729.01-.9233.02-1.3669q.0051-.2258.01-.4492Z"/>
        </g>
        <g>
          <path class="cls-2" d="M48.0227,28.9093a3.5487,3.5487,0,0,1-2.5244-1.0464L38.51,20.877A3.5687,3.5687,0,0,1,43.5569,15.83l4.4668,4.4682L64.6511,3.8023a3.5691,3.5691,0,1,1,5.0464,5.0484L50.5457,27.8668A3.5533,3.5533,0,0,1,48.0227,28.9093Z"/>
          <path class="cls-3" d="M67.1739,3.01A3.317,3.317,0,0,1,69.521,8.6738L50.37,27.6894a3.3218,3.3218,0,0,1-4.6943-.003L38.687,20.7A3.3187,3.3187,0,0,1,43.38,16.0068l4.6426,4.6445L64.8276,3.9794a3.3113,3.3113,0,0,1,2.3463-.97m0-.5a3.7974,3.7974,0,0,0-2.7,1.1158l-16.45,16.32-4.2905-4.2922a3.8187,3.8187,0,0,0-5.4013,5.4L45.3218,28.04a3.8217,3.8217,0,0,0,5.4.0037L69.8733,9.0286A3.817,3.817,0,0,0,67.1739,2.51Z"/>
        </g>
      </g>
    </g>
  </g>
</svg>
