<svg xmlns="http://www.w3.org/2000/svg" xmlns:xlink="http://www.w3.org/1999/xlink" viewBox="0 0 252 252"><defs><style>.cls-1{fill:url(#Dégradé_sans_nom_16);}.cls-2{fill-rule:evenodd;fill:url(#Dégradé_sans_nom_16-2);}.cls-3{fill:url(#Dégradé_sans_nom_16-3);}.cls-4{fill:url(#Dégradé_sans_nom_16-4);}.cls-5{fill:url(#Dégradé_sans_nom_16-5);}.cls-6{fill:url(#Dégradé_sans_nom_16-6);}.cls-7{fill:#fff;}.cls-8{fill:url(#Dégradé_sans_nom_16-7);}.cls-9{fill:url(#Dégradé_sans_nom_16-8);}.cls-10{fill:none;}</style><linearGradient id="Dégradé_sans_nom_16" y1="126" x2="252" y2="126" gradientUnits="userSpaceOnUse"><stop offset="0" stop-color="#722c79"/><stop offset="1" stop-color="#dc0e3f"/></linearGradient><linearGradient id="Dégradé_sans_nom_16-2" x1="54.76" y1="126.6" x2="194.09" y2="121.94" xlink:href="#Dégradé_sans_nom_16"/><linearGradient id="Dégradé_sans_nom_16-3" x1="45.56" y1="195.03" x2="224.05" y2="85.54" xlink:href="#Dégradé_sans_nom_16"/><linearGradient id="Dégradé_sans_nom_16-4" x1="27.29" y1="165.26" x2="205.79" y2="55.77" gradientTransform="translate(0.79 147.7) rotate(-45.19)" xlink:href="#Dégradé_sans_nom_16"/><linearGradient id="Dégradé_sans_nom_16-5" x1="26.12" y1="163.35" x2="204.61" y2="53.86" gradientTransform="translate(7.72 150.59) rotate(-45.19)" xlink:href="#Dégradé_sans_nom_16"/><linearGradient id="Dégradé_sans_nom_16-6" x1="45" y1="194.12" x2="223.49" y2="84.63" gradientTransform="translate(-103.76 104.2) rotate(-45.19)" xlink:href="#Dégradé_sans_nom_16"/><linearGradient id="Dégradé_sans_nom_16-7" x1="65.63" y1="161.76" x2="184.69" y2="88.73" xlink:href="#Dégradé_sans_nom_16"/><linearGradient id="Dégradé_sans_nom_16-8" x1="56.62" y1="182.08" x2="195.95" y2="177.41" xlink:href="#Dégradé_sans_nom_16"/></defs><title>Partners-tech</title><g id="Calque_2" data-name="Calque 2"><g id="Calque_1-2" data-name="Calque 1"><path class="cls-1" d="M126,7a119,119,0,0,1,84.15,203.15A119,119,0,0,1,41.85,41.85,118.25,118.25,0,0,1,126,7m0-7A126,126,0,1,0,252,126,126,126,0,0,0,126,0Z"/><g id="Wrench"><path class="cls-2" d="M102.2,62.72a27.33,27.33,0,0,0-24.93-7.08l-3.91.88L87.73,70.68l-3.26,12L72.33,85.85,58,71.7l-.89,3.85a26.07,26.07,0,0,0,7.19,24.56,32.54,32.54,0,0,0,22.44,8.94,29.7,29.7,0,0,0,5.63-.53l13.24,13.08,3.19-3-15-14.86-1.22.3a24.44,24.44,0,0,1-5.8.68A28,28,0,0,1,67.39,97,21.77,21.77,0,0,1,60.84,80.7L71,90.72l17.09-4.51,4.57-16.84-10.15-10h.73a22.4,22.4,0,0,1,15.83,6.46c6.28,6.2,9.2,16.37,7.08,24.75l-.3,1.2,15.16,15,3.24-3L110.73,90.39A31.32,31.32,0,0,0,102.2,62.72Zm90.61,108.79-46-45.43-3,3.19,45.87,45.32c6.08,6-6.26,17.75-12.14,12l-45.77-45.23-3.23,3,45.87,45.34C185.45,200.68,203.18,181.88,192.81,171.51Z"/></g><path class="cls-3" d="M59.73,192.58l18.8-5L62.73,171.7l-5.1,18.76A1.72,1.72,0,0,0,59.73,192.58Z"/><rect class="cls-4" x="166.81" y="69.96" width="22.09" height="5.89" transform="translate(104.23 -104.66) rotate(45.19)"/><rect class="cls-5" x="173.74" y="61.38" width="22.09" height="9.28" rx="0.83" ry="0.83" transform="translate(101.4 -111.6) rotate(45.19)"/><rect class="cls-6" x="62.26" y="174.99" width="22.09" height="3.54" transform="translate(147.04 0.18) rotate(45.19)"/><rect class="cls-7" x="56.01" y="114.2" width="138.3" height="22.09" transform="translate(-51.9 124.6) rotate(-44.81)"/><path class="cls-8" d="M166.42,74.33l9.93,10L83.91,176.15l-9.93-10,92.44-91.83m0-5.65L68.32,166.14l15.57,15.67L182,84.35,166.44,68.68Z"/><circle class="cls-9" cx="180.58" cy="177.92" r="4.64"/><rect class="cls-10" x="29.14" y="113.27" width="192.05" height="23.95" transform="translate(-51.9 124.6) rotate(-44.81)"/><rect class="cls-10" x="29.14" y="113.27" width="192.05" height="23.95" transform="translate(-51.9 124.6) rotate(-44.81)"/></g></g></svg>