<svg xmlns="http://www.w3.org/2000/svg" xmlns:xlink="http://www.w3.org/1999/xlink" viewBox="0 0 252 252"><defs><style>.cls-1{fill:url(#Dégradé_sans_nom_16);}.cls-2{fill:url(#Dégradé_sans_nom_16-2);}</style><linearGradient id="Dégradé_sans_nom_16" y1="126" x2="252" y2="126" gradientUnits="userSpaceOnUse"><stop offset="0" stop-color="#722c79"/><stop offset="1" stop-color="#dc0e3f"/></linearGradient><linearGradient id="Dégradé_sans_nom_16-2" x1="76.5" x2="175.5" xlink:href="#Dégradé_sans_nom_16"/></defs><title>Partners-receller_1</title><g id="Calque_2" data-name="Calque 2"><g id="Calque_1-2" data-name="Calque 1"><path class="cls-1" d="M126,7a119,119,0,0,1,84.15,203.15A119,119,0,0,1,41.85,41.85,118.25,118.25,0,0,1,126,7m0-7A126,126,0,1,0,252,126,126,126,0,0,0,126,0Z"/><path class="cls-2" d="M172.59,70.49c-.32.16-32.38,16.16-48.18.37C117,63.39,106.4,61,93.92,64a61.39,61.39,0,0,0-16.47,6.62l-1,.59V189.27h4V138.13c11.88-11.32,30.17-12.44,41.09-2.44,8.79,8.8,18.26,11.59,26.73,11.59,14.56,0,26.17-8.26,26.36-8.39l.82-.6V69Zm-1.09,65.72c-4.62,2.95-27.71,16-47.15-3.41a31,31,0,0,0-21.13-7.92,37.08,37.08,0,0,0-22.72,8V73.43a58.86,58.86,0,0,1,14.43-5.61c11.18-2.61,20.15-.64,26.66,5.87,7.44,7.45,19,9.84,33.43,6.92A86,86,0,0,0,171.5,75.4Z"/></g></g></svg>