<svg xmlns="http://www.w3.org/2000/svg" xmlns:xlink="http://www.w3.org/1999/xlink" viewBox="0 0 252 252"><defs><style>.cls-1{fill:url(#Dégradé_sans_nom_16);}.cls-2{fill:url(#Dégradé_sans_nom_16-2);}.cls-3{fill:url(#Dégradé_sans_nom_16-3);}.cls-4{fill:url(#Dégradé_sans_nom_16-4);}.cls-5{fill:url(#Dégradé_sans_nom_16-5);}.cls-6{fill:url(#Dégradé_sans_nom_16-6);}.cls-7{fill:url(#Dégradé_sans_nom_16-7);}.cls-8{fill:url(#Dégradé_sans_nom_16-8);}</style><linearGradient id="Dégradé_sans_nom_16" y1="126" x2="252" y2="126" gradientUnits="userSpaceOnUse"><stop offset="0" stop-color="#722c79"/><stop offset="1" stop-color="#dc0e3f"/></linearGradient><linearGradient id="Dégradé_sans_nom_16-2" x1="88.24" y1="207.24" x2="220.91" y2="153.91" xlink:href="#Dégradé_sans_nom_16"/><linearGradient id="Dégradé_sans_nom_16-3" x1="83.72" y1="197.05" x2="216.39" y2="143.72" xlink:href="#Dégradé_sans_nom_16"/><linearGradient id="Dégradé_sans_nom_16-4" x1="55.09" y1="128.18" x2="187.75" y2="74.85" xlink:href="#Dégradé_sans_nom_16"/><linearGradient id="Dégradé_sans_nom_16-5" x1="50.48" y1="113.31" x2="183.15" y2="59.98" xlink:href="#Dégradé_sans_nom_16"/><linearGradient id="Dégradé_sans_nom_16-6" x1="60.62" y1="149.47" x2="193.29" y2="96.13" xlink:href="#Dégradé_sans_nom_16"/><linearGradient id="Dégradé_sans_nom_16-7" x1="66.39" y1="163.83" x2="199.06" y2="110.5" xlink:href="#Dégradé_sans_nom_16"/><linearGradient id="Dégradé_sans_nom_16-8" x1="72.17" y1="178.19" x2="204.83" y2="124.86" xlink:href="#Dégradé_sans_nom_16"/></defs><title>Partners-corporate</title><g id="Calque_2" data-name="Calque 2"><g id="Calque_1-2" data-name="Calque 1"><path class="cls-1" d="M126,7a119,119,0,0,1,84.15,203.15A119,119,0,0,1,41.85,41.85,118.25,118.25,0,0,1,126,7m0-7A126,126,0,1,0,252,126,126,126,0,0,0,126,0Z"/><rect class="cls-2" x="60.76" y="189.91" width="132.78" height="3.38"/><path class="cls-3" d="M185.65,186.59h-117v-14h117Zm-114-3h111v-8h-111Z"/><path class="cls-4" d="M185.65,106.22h-117v-14h117Zm-114-3h111v-8h-111Z"/><path class="cls-5" d="M196.4,88.9H57.9a1.49,1.49,0,0,1-1.45-1.13,1.51,1.51,0,0,1,.73-1.69l69.25-37.66a1.48,1.48,0,0,1,1.44,0l69.25,37.66a1.51,1.51,0,0,1,.73,1.69A1.49,1.49,0,0,1,196.4,88.9Zm-132.6-3H190.5L127.15,51.44Z"/><path class="cls-6" d="M94.4,169.28H76.9V109.53H94.4Zm-14.5-3H91.4V112.53H79.9Z"/><path class="cls-7" d="M135.9,169.28H118.4V109.53h17.5Zm-14.5-3h11.5V112.53H121.4Z"/><path class="cls-8" d="M177.4,169.28H159.9V109.53h17.5Zm-14.5-3h11.5V112.53H162.9Z"/></g></g></svg>