<svg xmlns="http://www.w3.org/2000/svg" xmlns:xlink="http://www.w3.org/1999/xlink" viewBox="0 0 399.1 160.96"><defs><style>.cls-1{fill:url(#Dégradé_sans_nom_4);}.cls-2{fill:url(#Dégradé_sans_nom_6);}.cls-3{fill:url(#Dégradé_sans_nom_7);}.cls-4{fill:url(#Dégradé_sans_nom_4-2);}.cls-5{fill:url(#Dégradé_sans_nom_5);}.cls-6{fill:url(#Dégradé_sans_nom_6-2);}.cls-7{fill:url(#Dégradé_sans_nom_7-2);}.cls-8,.cls-9{fill:none;stroke:#efcf48;stroke-linecap:round;stroke-miterlimit:10;stroke-width:4px;}.cls-9{stroke-dasharray:10.17 10.17;}</style><linearGradient id="Dégradé_sans_nom_4" x1="253.9" y1="81.9" x2="399.1" y2="81.9" gradientTransform="matrix(1, 0, 0, -1, 0, 160)" gradientUnits="userSpaceOnUse"><stop offset="0" stop-color="#283373"/><stop offset="1" stop-color="#5e7bce"/></linearGradient><linearGradient id="Dégradé_sans_nom_6" x1="274.14" y1="59.29" x2="241.48" y2="43.63" gradientTransform="matrix(1, 0, 0, -1, 0, 160)" gradientUnits="userSpaceOnUse"><stop offset="0" stop-color="#283373"/><stop offset="0.07" stop-color="#2c4a75"/><stop offset="0.19" stop-color="#336d79"/><stop offset="0.32" stop-color="#388a7c"/><stop offset="0.46" stop-color="#3da17e"/><stop offset="0.6" stop-color="#40b180"/><stop offset="0.77" stop-color="#41ba81"/><stop offset="1" stop-color="#42bd81"/></linearGradient><linearGradient id="Dégradé_sans_nom_7" x1="188.3" y1="60.9" x2="229.2" y2="60.9" gradientTransform="matrix(1, 0, 0, -1, 0, 160)" gradientUnits="userSpaceOnUse"><stop offset="0" stop-color="#283373"/><stop offset="0.21" stop-color="#273270"/><stop offset="0.4" stop-color="#232d65"/><stop offset="0.57" stop-color="#1d2554"/><stop offset="0.73" stop-color="#141a3b"/><stop offset="0.89" stop-color="#090c1b"/><stop offset="1"/></linearGradient><linearGradient id="Dégradé_sans_nom_4-2" x1="147.8" y1="137.18" x2="399.1" y2="137.18" xlink:href="#Dégradé_sans_nom_4"/><linearGradient id="Dégradé_sans_nom_5" x1="240.6" y1="114.9" x2="399.1" y2="114.9" gradientTransform="matrix(1, 0, 0, -1, 0, 160)" gradientUnits="userSpaceOnUse"><stop offset="0"/><stop offset="0.11" stop-color="#090c1b"/><stop offset="0.27" stop-color="#141a3b"/><stop offset="0.43" stop-color="#1d2554"/><stop offset="0.6" stop-color="#232d65"/><stop offset="0.79" stop-color="#273270"/><stop offset="1" stop-color="#283373"/></linearGradient><linearGradient id="Dégradé_sans_nom_6-2" x1="197.75" y1="139.33" x2="184.41" y2="116" xlink:href="#Dégradé_sans_nom_6"/><linearGradient id="Dégradé_sans_nom_7-2" x1="188.3" y1="79.15" x2="245.2" y2="79.15" xlink:href="#Dégradé_sans_nom_7"/></defs><title>Fly</title><g id="Calque_2" data-name="Calque 2"><g id="Calque_1-2" data-name="Calque 1"><g id="Calque_2-2" data-name="Calque 2"><g id="Calque_14" data-name="Calque 14"><polygon class="cls-1" points="399.1 17.4 292.6 138.8 253.9 68.1 399.1 17.4"/><polygon class="cls-2" points="292.7 139.4 213.5 82.2 253.9 68.1 292.7 139.4"/><polygon class="cls-3" points="188.3 116 213.5 82.2 229.2 93.6 188.3 116"/><path class="cls-4" d="M399.1,17.4,147.8,0l96.8,45.4a2.2,2.2,0,0,0,1.4.2Z"/><polygon class="cls-5" points="240.6 72.8 245.2 45.7 399.1 17.4 240.6 72.8"/><polygon class="cls-6" points="147.8 0 191.6 53.3 245.2 45.7 147.8 0"/><polygon class="cls-7" points="188.3 116 191.6 53.3 245.2 45.7 240.6 72.8 213.5 82.2 188.3 116"/><path class="cls-8" d="M179.7,121.4s-1.6.7-4.6,1.9"/><path class="cls-9" d="M165.6,127c-28.7,10.8-96.2,33.3-153.5,31.9"/><path class="cls-8" d="M7,158.8l-5-.3"/></g></g></g></g></svg>