<svg xmlns="http://www.w3.org/2000/svg" xmlns:xlink="http://www.w3.org/1999/xlink" viewBox="0 0 249 249"><defs><style>.cls-1{fill:#fff;}.cls-2{fill:url(#Dégradé_sans_nom_7);}.cls-3{fill:url(#Dégradé_sans_nom_7-2);}.cls-4{fill:url(#Dégradé_sans_nom_7-3);}</style><linearGradient id="Dégradé_sans_nom_7" x1="36.75" y1="215.98" x2="185.75" y2="33.98" gradientUnits="userSpaceOnUse"><stop offset="0" stop-color="#722c79"/><stop offset="1" stop-color="#dc0f3e"/></linearGradient><linearGradient id="Dégradé_sans_nom_7-2" x1="42.21" y1="220.44" x2="191.21" y2="38.44" xlink:href="#Dégradé_sans_nom_7"/><linearGradient id="Dégradé_sans_nom_7-3" x1="44.1" y1="221.99" x2="193.1" y2="39.99" xlink:href="#Dégradé_sans_nom_7"/></defs><title>Higher-Education-Exam-Entrance-1</title><g id="Calque_2" data-name="Calque 2"><g id="Calque_1-2" data-name="Calque 1"><circle class="cls-1" cx="124.5" cy="124.5" r="111.98"/><path class="cls-1" d="M124.5,4a120.51,120.51,0,0,1,85.21,205.71A120.51,120.51,0,0,1,39.29,39.29,119.71,119.71,0,0,1,124.5,4m0-4A124.5,124.5,0,1,0,249,124.5,124.5,124.5,0,0,0,124.5,0Z"/><path class="cls-2" d="M83.62,102a1.34,1.34,0,0,1-.31-2.61l41.74-13.6a17.92,17.92,0,0,1,10.75,0l43.34,13.4a1.35,1.35,0,0,1,0,2.57L159,108a1.24,1.24,0,0,1-.47.06C154.58,107.69,102.54,103.5,83.62,102Z"/><path class="cls-3" d="M199,95.64l-60.47-18.7a27,27,0,0,0-16.29.08h0L62,96.3a5,5,0,0,0,0,9.48l3.62,1.12.26,53.64a8.75,8.75,0,0,0,2.7,17.07h0a8.75,8.75,0,0,0,2.58-17.1l-.25-52L83,112.28l.19,40.22a9.59,9.59,0,0,0,5.66,8.7,101.47,101.47,0,0,0,83.86-.4,9.61,9.61,0,0,0,5.57-8.76l-.19-40.22,21-6.7a5,5,0,0,0-.05-9.48ZM68.59,172.29h0a3.43,3.43,0,0,1,0-6.86h0a3.43,3.43,0,0,1,0,6.86ZM170.5,156a96.19,96.19,0,0,1-79.47.39,4.27,4.27,0,0,1-2.51-3.88l-.18-38.54,34.13,10.55a27,27,0,0,0,16.29-.08l34-10.88.18,38.54A4.26,4.26,0,0,1,170.5,156Zm-33.36-36.63a21.69,21.69,0,0,1-13.1.07L64.65,101l59.21-18.94A21.69,21.69,0,0,1,137,82l59.39,18.37Z"/><path class="cls-4" d="M58.92,199.28v-2.66a40,40,0,0,1,4-16.86L67.79,182a37.17,37.17,0,0,0-3.44,12l8.7,0a37.3,37.3,0,0,0-3.55-11.95l4.82-2.23a39.69,39.69,0,0,1,4.19,16.82v2.66Z"/></g></g></svg>