<svg xmlns="http://www.w3.org/2000/svg" xmlns:xlink="http://www.w3.org/1999/xlink" viewBox="0 0 249 249"><defs><style>.cls-1{fill:#fff;}.cls-2{fill:url(#Dégradé_sans_nom_7);}.cls-3{fill:url(#Dégradé_sans_nom_7-2);}.cls-4{fill:url(#Dégradé_sans_nom_7-3);}.cls-5{fill:url(#Dégradé_sans_nom_7-4);}.cls-6{fill:url(#Dégradé_sans_nom_7-5);}.cls-7{fill:url(#Dégradé_sans_nom_7-6);}.cls-8{fill:url(#Dégradé_sans_nom_7-7);}</style><linearGradient id="Dégradé_sans_nom_7" x1="62.98" y1="167.56" x2="205.73" y2="73.31" gradientUnits="userSpaceOnUse"><stop offset="0" stop-color="#722c79"/><stop offset="1" stop-color="#dc0f3e"/></linearGradient><linearGradient id="Dégradé_sans_nom_7-2" x1="70.48" y1="178.91" x2="213.23" y2="84.66" xlink:href="#Dégradé_sans_nom_7"/><linearGradient id="Dégradé_sans_nom_7-3" x1="52.35" y1="151.45" x2="195.1" y2="57.2" xlink:href="#Dégradé_sans_nom_7"/><linearGradient id="Dégradé_sans_nom_7-4" x1="58.96" y1="161.47" x2="201.71" y2="67.22" xlink:href="#Dégradé_sans_nom_7"/><linearGradient id="Dégradé_sans_nom_7-5" x1="64.25" y1="169.48" x2="207" y2="75.23" xlink:href="#Dégradé_sans_nom_7"/><linearGradient id="Dégradé_sans_nom_7-6" x1="69.31" y1="177.14" x2="212.06" y2="82.89" xlink:href="#Dégradé_sans_nom_7"/><linearGradient id="Dégradé_sans_nom_7-7" x1="47.18" y1="143.62" x2="189.93" y2="49.37" xlink:href="#Dégradé_sans_nom_7"/></defs><title>High-School-1</title><g id="Calque_2" data-name="Calque 2"><g id="Calque_1-2" data-name="Calque 1"><circle class="cls-1" cx="124.5" cy="124.5" r="111.98"/><path class="cls-1" d="M124.5,4a120.51,120.51,0,0,1,85.21,205.71A120.51,120.51,0,0,1,39.29,39.29,119.71,119.71,0,0,1,124.5,4m0-4A124.5,124.5,0,1,0,249,124.5,124.5,124.5,0,0,0,124.5,0Z"/><path class="cls-2" d="M188.61,84.36v85.16H60.39V84.36H188.61m4.07-4.07H56.32v93.3H192.68V80.29Z"/><path class="cls-1" d="M184.21,82c-18.36-5.71-41.58-6.26-59.76,0h0v83.18h0c18.18-6.25,41.4-5.7,59.76,0Z"/><path class="cls-3" d="M184.21,167.18a2.08,2.08,0,0,1-.6-.09c-19-5.9-41.4-5.9-58.5,0a2,2,0,0,1-1.85-.27,2,2,0,0,1-.85-1.66V82A2,2,0,0,1,123.78,80c17.89-6.16,41.27-6.16,61,0A2,2,0,0,1,186.25,82v83.18a2.06,2.06,0,0,1-.83,1.65A2,2,0,0,1,184.21,167.18Zm-30.58-8.58a107.15,107.15,0,0,1,28.54,3.82V83.47c-18.15-5.31-39.2-5.33-55.68,0v78.91A95.1,95.1,0,0,1,153.63,158.6Z"/><path class="cls-1" d="M124.45,82C106.09,76.25,83,75.7,64.79,82h0v83.18h0c18.18-6.25,41.3-5.7,59.66,0Z"/><path class="cls-4" d="M124.45,167.18a2.1,2.1,0,0,1-.61-.09c-18.94-5.88-41.32-5.89-58.39,0a2,2,0,0,1-1.85-.27,2,2,0,0,1-.85-1.66V82A2,2,0,0,1,64.12,80c17.85-6.14,41.2-6.15,60.93,0A2,2,0,0,1,126.49,82v83.18a2,2,0,0,1-2,2ZM93.92,158.6a106.83,106.83,0,0,1,28.49,3.82V83.47c-18.12-5.3-39.13-5.31-55.58,0v78.91A95.1,95.1,0,0,1,93.92,158.6Z"/><rect class="cls-5" x="139.19" y="96.59" width="30" height="4"/><rect class="cls-6" x="139.19" y="108.09" width="30" height="4"/><rect class="cls-7" x="139.19" y="119.09" width="30" height="4"/><path class="cls-8" d="M113.69,126.59h-33a1.5,1.5,0,0,1-1.5-1.5v-29a1.5,1.5,0,0,1,1.5-1.5h33a1.5,1.5,0,0,1,1.5,1.5v29A1.5,1.5,0,0,1,113.69,126.59Zm-31.5-3h30v-26h-30Z"/></g></g></svg>