<svg xmlns="http://www.w3.org/2000/svg" xmlns:xlink="http://www.w3.org/1999/xlink" viewBox="0 0 249 249"><defs><style>.cls-1{fill:#fff;}.cls-2{fill:url(#Dégradé_sans_nom_7);}.cls-3{fill:url(#Dégradé_sans_nom_7-2);}.cls-4{fill:url(#Dégradé_sans_nom_7-3);}.cls-5{fill:url(#Dégradé_sans_nom_7-4);}.cls-6{fill:url(#Dégradé_sans_nom_7-5);}.cls-7{fill:url(#Dégradé_sans_nom_7-6);}.cls-8{fill:url(#Dégradé_sans_nom_7-7);}.cls-9{fill:url(#Dégradé_sans_nom_7-8);}.cls-10{fill:url(#Dégradé_sans_nom_7-9);}.cls-11{fill:url(#Dégradé_sans_nom_7-10);}.cls-12{fill:url(#Dégradé_sans_nom_7-11);}.cls-13{fill:url(#Dégradé_sans_nom_7-12);}.cls-14{fill:url(#Dégradé_sans_nom_7-13);}</style><linearGradient id="Dégradé_sans_nom_7" x1="30.57" y1="243.48" x2="196.57" y2="16.48" gradientUnits="userSpaceOnUse"><stop offset="0" stop-color="#722c79"/><stop offset="1" stop-color="#dc0f3e"/></linearGradient><linearGradient id="Dégradé_sans_nom_7-2" x1="-9.96" y1="213.84" x2="156.04" y2="-13.16" xlink:href="#Dégradé_sans_nom_7"/><linearGradient id="Dégradé_sans_nom_7-3" x1="7.95" y1="226.94" x2="173.95" y2="-0.06" gradientTransform="translate(46.31 -36.76) rotate(24.27)" xlink:href="#Dégradé_sans_nom_7"/><linearGradient id="Dégradé_sans_nom_7-4" x1="80.13" y1="279.72" x2="246.13" y2="52.72" xlink:href="#Dégradé_sans_nom_7"/><linearGradient id="Dégradé_sans_nom_7-5" x1="39.59" y1="250.08" x2="205.59" y2="23.08" xlink:href="#Dégradé_sans_nom_7"/><linearGradient id="Dégradé_sans_nom_7-6" x1="71.82" y1="273.64" x2="237.82" y2="46.64" gradientTransform="translate(75.93 -53.52) rotate(24.27)" xlink:href="#Dégradé_sans_nom_7"/><linearGradient id="Dégradé_sans_nom_7-7" x1="52.6" y1="259.59" x2="218.6" y2="32.59" gradientTransform="translate(80.2 -33.66) rotate(24.27)" xlink:href="#Dégradé_sans_nom_7"/><linearGradient id="Dégradé_sans_nom_7-8" x1="56.23" y1="262.24" x2="222.23" y2="35.24" gradientTransform="translate(57.49 -62.01) rotate(24.27)" xlink:href="#Dégradé_sans_nom_7"/><linearGradient id="Dégradé_sans_nom_7-9" x1="13.94" y1="231.31" x2="179.94" y2="4.31" gradientTransform="translate(66.88 -18.34) rotate(24.27)" xlink:href="#Dégradé_sans_nom_7"/><linearGradient id="Dégradé_sans_nom_7-10" x1="21.52" y1="236.86" x2="187.52" y2="9.86" gradientTransform="translate(54.25 -38.47) rotate(24.27)" xlink:href="#Dégradé_sans_nom_7"/><linearGradient id="Dégradé_sans_nom_7-11" x1="28.3" y1="241.82" x2="194.3" y2="14.82" gradientTransform="translate(58.22 -39.32) rotate(24.27)" xlink:href="#Dégradé_sans_nom_7"/><linearGradient id="Dégradé_sans_nom_7-12" x1="66.98" y1="270.1" x2="232.98" y2="43.1" xlink:href="#Dégradé_sans_nom_7"/><linearGradient id="Dégradé_sans_nom_7-13" x1="48.93" y1="256.91" x2="214.93" y2="29.91" xlink:href="#Dégradé_sans_nom_7"/></defs><title>HR-Department-1_1</title><g id="Calque_2" data-name="Calque 2"><g id="Calque_1-2" data-name="Calque 1"><circle class="cls-1" cx="124.5" cy="124.5" r="111.98"/><path class="cls-1" d="M124.5,4a120.51,120.51,0,0,1,85.21,205.71A120.51,120.51,0,0,1,39.29,39.29,119.71,119.71,0,0,1,124.5,4m0-4A124.5,124.5,0,1,0,249,124.5,124.5,124.5,0,0,0,124.5,0Z"/><polygon class="cls-2" points="158.93 83.39 156.27 77.48 159.92 75.84 156.63 68.54 149.33 71.83 150.98 75.48 145.06 78.15 140.75 68.59 159.87 59.97 168.49 79.08 158.93 83.39"/><polygon class="cls-3" points="61.34 127.41 52.72 108.29 71.83 99.67 76.14 109.23 70.23 111.89 68.59 108.25 61.29 111.53 64.58 118.83 68.23 117.19 70.9 123.09 61.34 127.41"/><rect class="cls-4" x="74.82" y="86.04" width="67.6" height="6.48" transform="translate(-27.1 52.55) rotate(-24.27)"/><polygon class="cls-5" points="177.17 149.33 172.86 139.77 178.77 137.11 180.41 140.75 187.71 137.46 184.42 130.17 180.77 131.81 178.1 125.9 187.66 121.59 196.28 140.71 177.17 149.33"/><polygon class="cls-6" points="89.13 189.03 80.51 169.92 90.07 165.61 92.73 171.52 89.08 173.16 92.37 180.46 99.67 177.17 98.02 173.52 103.94 170.85 108.25 180.41 89.13 189.03"/><rect class="cls-7" x="152.73" y="146.55" width="19.32" height="6.48" transform="translate(-47.22 80) rotate(-24.27)"/><rect class="cls-8" x="108.71" y="166.4" width="19.32" height="6.48" transform="translate(-59.27 63.66) rotate(-24.27)"/><rect class="cls-9" x="169.68" y="83.35" width="6.48" height="38.63" transform="translate(-26.92 80.16) rotate(-24.27)"/><rect class="cls-10" x="72.84" y="127.02" width="6.48" height="38.63" transform="translate(-53.43 44.21) rotate(-24.27)"/><rect class="cls-11" x="90" y="103.65" width="53.12" height="6.48" transform="translate(-33.64 57.37) rotate(-24.27)"/><rect class="cls-12" x="103.63" y="112.45" width="33.8" height="6.48" transform="translate(-36.91 59.78) rotate(-24.27)"/><polyline class="cls-13" points="145.36 151.18 155.29 173.19 146.7 171.76 142.08 179.15 132.16 157.13"/><path class="cls-14" d="M117,138.65a4.67,4.67,0,0,1-.41,4.28,4.71,4.71,0,0,0,1.71,6.68,4.68,4.68,0,0,1,2.41,3.56,4.67,4.67,0,0,0,5.56,4,4.62,4.62,0,0,1,4.11,1.19,4.6,4.6,0,0,0,6.8-.48,4.59,4.59,0,0,1,3.89-1.76,4.6,4.6,0,0,0,4.87-4.78,4.66,4.66,0,0,1,1.84-3.87,4.68,4.68,0,0,0,.66-6.84,4.71,4.71,0,0,1-1.07-4.17,4.71,4.71,0,0,0-3.86-5.71,4.66,4.66,0,0,1-3.48-2.52,4.63,4.63,0,0,0-6.57-1.9,4.59,4.59,0,0,1-4.26.31,4.58,4.58,0,0,0-6.21,2.8,4.61,4.61,0,0,1-3,3A4.65,4.65,0,0,0,117,138.65Zm12.42-3.14a7.24,7.24,0,1,1-3.63,9.58A7.25,7.25,0,0,1,129.45,135.51Z"/></g></g></svg>