<svg xmlns="http://www.w3.org/2000/svg" xmlns:xlink="http://www.w3.org/1999/xlink" viewBox="0 0 249 249"><defs><style>.cls-1{fill:#fff;}.cls-2{fill:url(#Dégradé_sans_nom_7);}.cls-3{fill:url(#Dégradé_sans_nom_7-2);}</style><linearGradient id="Dégradé_sans_nom_7" x1="11.6" y1="214.07" x2="214.6" y2="50.07" gradientUnits="userSpaceOnUse"><stop offset="0" stop-color="#722c79"/><stop offset="1" stop-color="#dc0f3e"/></linearGradient><linearGradient id="Dégradé_sans_nom_7-2" x1="26.41" y1="232.39" x2="229.41" y2="68.39" xlink:href="#Dégradé_sans_nom_7"/></defs><title>Training-center</title><g id="Calque_2" data-name="Calque 2"><g id="Calque_1-2" data-name="Calque 1"><circle class="cls-1" cx="124.5" cy="124.5" r="124.5"/><path class="cls-2" d="M185,117.15a36.37,36.37,0,0,1-7-6.89l3.41-1.67.12-1.53c.36-4.71,0-11.41-6.17-21.57C170.61,77.55,162.53,70,155.32,71l-1,.13-.65.71c-.19.2-18.41,19.85-26.14,25l-.29.23c-.17.14-17.21,14.79-60.64,23.07a7.21,7.21,0,0,0-3.11.93,9,9,0,0,0-4.06,5.8c-1.76,6.86,1.16,17.3,8,28.63,9,14.9,17.53,19.11,23.15,21.89l1.61.79L93.61,177c.59-.51,59.24-51.12,90.07-55l6.35-.81Zm-54.31-16c7.46-5.05,22.6-21.07,26.2-24.91,4.31.24,10.3,6.07,13.9,12,4.7,7.76,5.56,12.89,5.48,16.83l-23.2,11.37L125.9,130.94l-.16.1c-10.39,6.5-24.09,16.29-31.66,21.78-.43-4.06-2.25-9-5.26-13.92-4.15-6.84-8.62-12.05-12.86-15.23C113.35,115.27,128.93,102.7,130.71,101.18ZM124,146.41c-15.49,11-28.45,21.8-32.58,25.3-5.18-2.64-11.9-6.79-19.34-19.05-7.1-11.72-8.49-20.34-7.41-24.49a3.89,3.89,0,0,1,1.52-2.47,1.72,1.72,0,0,1,.83-.21h.1c2.9,0,9.74,4.13,17.06,16.2,4,6.53,5.07,12,4.41,14.58a2.82,2.82,0,0,1-.31.78c-1.47-.69-4.75-3.11-7.73-8a42,42,0,0,1-3.75-8.08l2.77-1.59-2.68-4.68-6.46,3.71.56,2a47.36,47.36,0,0,0,5,11.42c4.57,7.54,11.24,12.28,14.58,10.37A6.46,6.46,0,0,0,92,161c2.94-2.17,22.68-16.69,36.5-25.35l27-14.35,17.64-8.64a34.46,34.46,0,0,0,4.26,5C164.09,121,146.18,130.68,124,146.41Z"/><path class="cls-3" d="M157.12,138a15.37,15.37,0,0,0-.16-15.75,16.23,16.23,0,0,0-14.14-7.74h0c-.33-.62-.68-1.22-1-1.81-6.05-10-15.11-15.7-20.24-12.75l-9,5.15a1.28,1.28,0,0,0,.3,2.37c4.85,1.21,10.66,6.14,15,13.23.37.61.72,1.23,1.07,1.86h0a15.4,15.4,0,0,0,.18,15.7A16.26,16.26,0,0,0,143.19,146l18.93,31.23L165,166.44l11.08,2.78Z"/></g></g></svg>