<svg xmlns="http://www.w3.org/2000/svg" viewBox="0 0 101.05 149.25"><defs><style>.cls-1{fill:#fff;fill-rule:evenodd;}</style></defs><title>Address</title><g id="Calque_2" data-name="Calque 2"><g id="Calque_1-2" data-name="Calque 1"><g id="Pin"><path class="cls-1" d="M50.53,0C22.67,0,0,22.05,0,49.15,0,93.53,46.52,144.87,48.5,147l2,2.22,2-2.22c2-2.18,48.5-53.83,48.5-97.88C101.05,22.05,78.38,0,50.53,0Zm0,141.21c-9-10.51-45.1-54.79-45.1-92.06C5.42,25,25.65,5.28,50.53,5.28S95.62,25,95.62,49.15C95.62,86.12,59.55,130.65,50.52,141.21Zm.59-110.28c-10.65,0-19.32,8.43-19.32,18.8s8.67,18.8,19.32,18.8,19.32-8.43,19.32-18.8S61.77,30.93,51.11,30.93Zm0,32.32A13.53,13.53,0,1,1,65,49.73,13.73,13.73,0,0,1,51.11,63.25Z"/></g></g></g></svg>