<svg xmlns="http://www.w3.org/2000/svg" viewBox="0 0 80 80"><defs><style>.cls-1,.cls-2{fill:#fff;}.cls-2{fill-rule:evenodd;}</style></defs><title>Facebook-1</title><g id="Calque_2" data-name="Calque 2"><g id="Calque_1-2" data-name="Calque 1"><g id="FACEBOOK_BG"><path class="cls-1" d="M40,3A37,37,0,1,1,3,40,37,37,0,0,1,40,3m0-3A40,40,0,1,0,80,40,40,40,0,0,0,40,0Z"/></g><g id="FACEBOOK"><path class="cls-2" d="M41.75,35V31.39c0-1.17.76-2.39,1.84-2.39h3V24H42.92v0c-5.71.21-6.88,3.51-7,7h0v4H33v5h2.92V56h5.82V40h4.38L47,35Z"/></g></g></g></svg>