<svg xmlns="http://www.w3.org/2000/svg" viewBox="0 0 81 81"><defs><style>.cls-1{fill:#fff;}</style></defs><title>Languages-white</title><g id="Calque_2" data-name="Calque 2"><g id="Calque_1-2" data-name="Calque 1"><path class="cls-1" d="M81,38.5A40.55,40.55,0,0,0,42.5.05V0h-4V.05A40.55,40.55,0,0,0,.05,38.5H0v4H.05A40.55,40.55,0,0,0,38.5,81v0h4v0A40.55,40.55,0,0,0,81,42.5h0v-4Zm-4,0H61.6a53.08,53.08,0,0,0-2.79-14.87,71.3,71.3,0,0,0,11.67-3.92A36.19,36.19,0,0,1,76.94,38.5ZM68.68,17.33A69.48,69.48,0,0,1,57.81,20.9,51.17,51.17,0,0,0,47.92,4.76,36.56,36.56,0,0,1,68.68,17.33ZM54.33,21.66A74.76,74.76,0,0,1,42.5,23V4.58C45.25,6.37,50.67,12.61,54.33,21.66ZM38.5,4.07V23a75.48,75.48,0,0,1-12.23-1.32C30,12.14,35.65,5.51,38.5,4.07Zm0,21.81V38.5H22.73a50,50,0,0,1,2.54-14.08A78.42,78.42,0,0,0,38.5,25.88Zm0,16.62V57.06a76.31,76.31,0,0,0-12.23,1.33A50.49,50.49,0,0,1,22.76,42.5ZM38.5,60V76c-2.42-1.42-7.35-6.84-11.06-14.87A72.8,72.8,0,0,1,38.5,60Zm4,16.25V60a75.12,75.12,0,0,1,11,1.12C50,69.07,45.17,74.66,42.5,76.21Zm0-19.16V42.5H58a51.15,51.15,0,0,1-3.35,15.82A79,79,0,0,0,42.5,57.05Zm0-18.55V25.87a76.84,76.84,0,0,0,12.86-1.46A49.74,49.74,0,0,1,58,38.5ZM32.07,5A51.3,51.3,0,0,0,22.75,20.9,69.75,69.75,0,0,1,12.2,17.49,36.51,36.51,0,0,1,32.07,5ZM10.41,19.87a71,71,0,0,0,11.38,3.78A54.37,54.37,0,0,0,19.14,38.5H4.06A36.19,36.19,0,0,1,10.41,19.87ZM19.18,42.5a54.16,54.16,0,0,0,3.6,16.64,72.5,72.5,0,0,0-11.2,3.6A36.36,36.36,0,0,1,4.06,42.5ZM13.53,65.07a71.85,71.85,0,0,1,10.38-3.22,49,49,0,0,0,9.57,14.47A36.48,36.48,0,0,1,13.53,65.07ZM47.91,76.24a48.26,48.26,0,0,0,9.18-14.46A70.21,70.21,0,0,1,67.56,65,36.54,36.54,0,0,1,47.91,76.24ZM69.5,62.63a72.82,72.82,0,0,0-11.33-3.58A55.3,55.3,0,0,0,61.59,42.5H76.94A36.32,36.32,0,0,1,69.5,62.63Z"/></g></g></svg>