<svg xmlns="http://www.w3.org/2000/svg" viewBox="0 0 80 80"><defs><style>.cls-1,.cls-2{fill:#fff;}.cls-2{fill-rule:evenodd;}</style></defs><title>Linkedin-1</title><g id="Calque_2" data-name="Calque 2"><g id="Calque_1-2" data-name="Calque 1"><g id="LINKEDIN_BG"><path class="cls-1" d="M40,3A37,37,0,1,1,3,40,37,37,0,0,1,40,3m0-3A40,40,0,1,0,80,40,40,40,0,0,0,40,0Z"/></g><g id="LINKEDIN"><path class="cls-2" d="M26.39,54h6.93V34H26.39Zm23.07-20.6c-2.87,0-4.45,1-6.27,3.32V34H36.26V54h6.93V43.14c0-2.29,1.08-4.53,3.68-4.53s3.23,2.24,3.23,4.47V54H57V42.64C57,34.75,52.33,33.39,49.46,33.39ZM29.87,24A3.7,3.7,0,0,0,26,27.53a3.71,3.71,0,0,0,3.87,3.53,3.71,3.71,0,0,0,3.86-3.53A3.7,3.7,0,0,0,29.87,24Z"/></g></g></g></svg>