<svg xmlns="http://www.w3.org/2000/svg" viewBox="0 0 43.45 28.35"><defs><style>.cls-1{fill:#fff;fill-rule:evenodd;}</style></defs><title>Mail</title><g id="Calque_2" data-name="Calque 2"><g id="Calque_1-2" data-name="Calque 1"><g id="Mail"><path class="cls-1" d="M42.59,28.1l.86-.58-.26-.27a1.42,1.42,0,0,0,.07-.42V1.52a1.76,1.76,0,0,0-.06-.39l.24-.24L42.65.3A2,2,0,0,0,42.4.16l-.06,0L42.08.05H42a2.17,2.17,0,0,0-.25,0H1.68a2.34,2.34,0,0,0-.26,0H1.36L1.11.13,1,.16A1.88,1.88,0,0,0,.8.3L0,.89l.25.24a1.32,1.32,0,0,0-.06.39V26.83a1.42,1.42,0,0,0,.07.42L0,27.51l.85.58a.77.77,0,0,0,.24.12h0a1.48,1.48,0,0,0,.58.13H41.77a1.4,1.4,0,0,0,.57-.13h0A1.63,1.63,0,0,0,42.59,28.1Zm-1-2.49L30.28,14.2,41.57,2.78ZM40.22,1.73,21.72,20.44,3.23,1.73ZM20.63,21.8a1.58,1.58,0,0,0,2.19,0l6.29-6.37,11.07,11.2H3.27l11.06-11.2ZM1.88,2.78,13.16,14.2,1.88,25.61Z"/></g></g></g></svg>