<svg xmlns="http://www.w3.org/2000/svg" viewBox="0 0 230.92 255"><defs><style>.cls-1{fill:#fff;fill-rule:evenodd;}</style></defs><title>Phone</title><g id="Calque_2" data-name="Calque 2"><g id="Calque_1-2" data-name="Calque 1"><g id="Phone"><path class="cls-1" d="M226.51,199c-16.28-13.64-45-32-56.16-34.36l-.8-.16-.8.11c-6.35.93-10.21,5.13-13.61,8.83-4.45,4.86-7.38,7.56-13.58,6.71-1.9-.27-10-3.52-35.71-33.7l-11-13.16c-25.66-31.43-27.28-40-27.16-41.82.4-6.18,3.71-8.32,9.52-11.59,4.41-2.48,9.42-5.29,11.66-11.17l.28-.74v-.79C89.12,56,76.57,24.88,66.43,7,65.32,4.36,62.12,0,53.3,0,35.39,0,4.05,17.68.68,38.64c-4.76,29.7,15.61,75.31,54.5,122l14.36,17.24C108.42,224.59,150,253.4,180.82,255l1.33,0h0c20.25,0,42.47-23.68,47.56-39.65C233,205.18,228.86,200.58,226.51,199Zm-5.33,13.73c-4.22,13.24-23.4,33.53-39,33.53l-.87,0c-21.85-1.11-60.87-21.1-104.8-73.87L62.12,155.16C18.17,102.38,6.13,61.06,9.51,40,12.05,24.16,39.06,8.71,53.3,8.71c1.26,0,4.26.16,5.1,2C69.53,30.48,79.53,57.5,80.2,66.4c-1.21,2.36-3.68,3.84-7.43,5.94-5.58,3.15-13.25,7.45-14,18.58-.32,4.94,2.47,15.42,30.33,49.33l2.8,3.37,0,0,2.22,2.66,0,0L97,149.71c28.31,33.54,38.26,38.36,43.28,39.06,11.42,1.64,17.05-4.64,21.52-9.51,2.89-3.15,4.88-5.19,7.5-5.87,8.79,2.47,33.87,17.57,51.76,32.53C222.46,206.86,222,210.07,221.18,212.76Z"/></g></g></g></svg>