<svg xmlns="http://www.w3.org/2000/svg" viewBox="0 0 80 80"><defs><style>.cls-1,.cls-2{fill:#fff;}.cls-2{fill-rule:evenodd;}</style></defs><title>Twitter-1</title><g id="Calque_2" data-name="Calque 2"><g id="Calque_1-2" data-name="Calque 1"><g id="TWITTER"><path class="cls-1" d="M40,3A37,37,0,1,1,3,40,37,37,0,0,1,40,3m0-3A40,40,0,1,0,80,40,40,40,0,0,0,40,0Z"/></g><g id="TWITTER-2" data-name="TWITTER"><path class="cls-2" d="M56,30.12a11.33,11.33,0,0,1-3.66,1,7,7,0,0,0,2.75-3.58A10.79,10.79,0,0,1,51,29h0A6.6,6.6,0,0,0,39.6,33.6a6.43,6.43,0,0,0,.17,1.47h0a18.24,18.24,0,0,1-13.6-6.85,6.61,6.61,0,0,0,2,8.73,4.3,4.3,0,0,1-2.89-.75,6.36,6.36,0,0,0,5.1,6.45,5.2,5.2,0,0,1-2.75.21c.21,1.94,2.93,4.48,5.9,4.48-1.06,1.23-5.05,3.45-9.52,2.74A19.83,19.83,0,0,0,34.33,53,18.33,18.33,0,0,0,52.8,33.72V33.5A11.28,11.28,0,0,0,56,30.12Z"/></g></g></g></svg>