<svg xmlns="http://www.w3.org/2000/svg" viewBox="0 0 81 81"><defs><style>.cls-1{fill:#fff;}</style></defs><title>Youtube-white</title><g id="Calque_2" data-name="Calque 2"><g id="Calque_1-2" data-name="Calque 1"><path class="cls-1" d="M40.5,81A40.5,40.5,0,1,1,81,40.5,40.55,40.55,0,0,1,40.5,81Zm0-77A36.5,36.5,0,1,0,77,40.5,36.54,36.54,0,0,0,40.5,4Z"/><path class="cls-1" d="M56.7,25.56H24.3a4.09,4.09,0,0,0-4.1,4.1V51.34a4.1,4.1,0,0,0,4.1,4.1H56.7a4.1,4.1,0,0,0,4.1-4.1V29.66A4.09,4.09,0,0,0,56.7,25.56ZM35.52,48.42V32.58L49.24,40.5Z"/></g></g></svg>